PathFileType	3	(X/Y/Z)	D:\ViconData\Biomechanics course\HT2024\Leo31oct\Walk_Norm15.trc
DataRate	CameraRate	NumFrames	NumMarkers	Units	OrigDataRate	OrigDataStartFrame	OrigNumFrames
100.0	100.0	6	53	mm	100.0	133	210	
Frame#	Time	LFHD			RFHD			LBHD			RBHD			C7			T10			CLAV			STRN			RBAK			LSHO			LUPA			LELB			LFRM			LWRA			LWRB			LFIN			RSHO			RUPA			RELB			RFRM			RWRA			RWRB			RFIN			LASI			RASI			LPSI			RPSI			LTHI			LTHAP			LTHAD			LKNE			LKNM			LTIB			LTIAP			LTIAD			LANK			LMED			LHEE			LTOE			RTHI			RTHAP			RTHAD			RKNE			RKNM			RTIB			RTIAP			RTIAD			RANK			RMED			RHEE			RTOE			LPel			RPel			
		X1	Y1	Z1	X2	Y2	Z2	X3	Y3	Z3	X4	Y4	Z4	X5	Y5	Z5	X6	Y6	Z6	X7	Y7	Z7	X8	Y8	Z8	X9	Y9	Z9	X10	Y10	Z10	X11	Y11	Z11	X12	Y12	Z12	X13	Y13	Z13	X14	Y14	Z14	X15	Y15	Z15	X16	Y16	Z16	X17	Y17	Z17	X18	Y18	Z18	X19	Y19	Z19	X20	Y20	Z20	X21	Y21	Z21	X22	Y22	Z22	X23	Y23	Z23	X24	Y24	Z24	X25	Y25	Z25	X26	Y26	Z26	X27	Y27	Z27	X28	Y28	Z28	X29	Y29	Z29	X30	Y30	Z30	X31	Y31	Z31	X32	Y32	Z32	X33	Y33	Z33	X34	Y34	Z34	X35	Y35	Z35	X36	Y36	Z36	X37	Y37	Z37	X38	Y38	Z38	X39	Y39	Z39	X40	Y40	Z40	X41	Y41	Z41	X42	Y42	Z42	X43	Y43	Z43	X44	Y44	Z44	X45	Y45	Z45	X46	Y46	Z46	X47	Y47	Z47	X48	Y48	Z48	X49	Y49	Z49	X50	Y50	Z50	X51	Y51	Z51	X52	Y52	Z52	X53	Y53	Z53	
133	1.32	181.7733	1650.1766	660.15448	298.35947	1650.5392	659.06134				298.71225	1657.9276	513.79852	235.81857	1514.3665	722.04858	234.52884	1280.3544	796.61383	238.12384	1434.1494	598.31055	234.26913	1241.4904	559.66449	317.87222	1401.8182	782.6944	75.918785	1472.198	648.72632	-26.760187	1198.8054	608.37988	-38.774597	1122.7118	582.89258	-14.624216	1039.2238	489.94266	74.149658	995.02557	363.68381	41.508125	940.44049	391.35162	64.95636	944.61438	286.25327	396.19217	1456.9287	658.97015	480.17136	1194.6475	722.21405	490.96451	1113.7578	746.06677	498.85526	975.73712	712.26593	467.59305	828.70599	737.7489	446.74991	819.37152	668.6701	476.63174	734.59814	675.07898	102.2949	994.08588	612.14056	341.57507	1012.6128	585.57239	201.36526	1024.2937	792.0517	285.45804	1029.5251	784.28143	74.756111	609.9126	751.80103	139.07539	650.62506	629.26715	140.80273	533.28284	666.89172	87.760811	481.43033	790.09827				97.40847	299.8465	986.87988	122.98715	370.70511	816.9024	134.42896	231.77147	993.13617	121.72354	181.5323	1100.7909				163.11945	212.65364	1158.1985	158.08073	86.209885	1066.8558	369.23825	608.02118	516.00946	301.54108	722.28931	468.38443	295.85684	644.49286	445.72662	355.48709	509.07391	480.05429				339.24561	227.01736	465.87048	302.94086	441.28534	421.7764	290.83112	233.716	421.07538	309.26172	89.762764	458.86676				266.92828	53.05019	514.27472	282.43015	48.955147	354.35959	73.066948	1018.3867	702.00146	383.97873	1039.444	713.64185
134	1.33	183.4633	1651.2314	645.34845	300.04828	1651.2826	644.18481				300.3494	1658.6456	498.91412	237.20982	1515.2872	707.20203	235.34764	1281.2552	781.35284	239.19858	1435.0577	583.44183	234.96465	1242.4159	544.81818	319.19324	1402.556	767.66248	77.098259	1473.4218	634.02527	-25.786179	1199.3344	596.75964	-37.841457	1122.8315	572.52856	-13.91028	1037.4921	481.41418	74.978165	990.28009	356.42929	41.848522	936.52557	384.99405	66.099762	938.29926	280.00232	397.31049	1457.5106	643.81604	481.27689	1194.8503	705.74884	492.17889	1113.8934	729.25488	500.15353	976.05585	694.77631	469.05499	828.87445	719.51703	448.19	819.82587	650.47546	478.1767	735.08875	656.36481	103.44655	994.1391	597.56122	342.54172	1014.1599	571.13141	201.80585	1024.7765	777.6236	285.90524	1030.724	769.9068	75.652283	607.16699	728.97485	139.4455	650.61456	607.34296	140.87163	532.21545	641.95862	88.517609	479.81094	764.31885				97.402321	305.11124	965.53937	123.07557	370.13809	793.37329	133.80133	237.11124	973.80896	121.09937	190.75757	1083.196				163.08195	225.1256	1138.3243	156.97873	92.677124	1055.3782	369.40796	608.81525	503.54028	302.49954	722.79944	455.3277	296.10999	644.93121	433.27905	355.2739	509.49548	468.6308				339.2673	227.32632	460.86536	302.41901	440.52637	411.94412	290.32684	232.84636	416.37592	309.12424	89.892662	457.64349				267.11322	53.530323	513.94397	282.0675	48.22377	353.88406	73.614983	1017.988	687.33765	384.46689	1041.3485	699.40668
135	1.34	185.06084	1652.4868	630.59814	301.64484	1652.2189	629.37531				301.90433	1659.5031	484.09634	238.5361	1516.4116	692.45276	236.15419	1282.3794	766.28076	240.17442	1436.1487	568.69818	235.5723	1243.5123	530.13397	320.47977	1403.5244	752.73596	78.189438	1474.8314	619.48553	-24.833502	1200.0417	585.34326	-36.900658	1123.1262	562.42157	-13.325638	1035.7828	473.34332	75.528244	985.18481	349.75693	41.892239	932.40027	379.35828	66.879768	931.41699	274.52573	398.34366	1458.3158	628.73535	482.37399	1195.2914	689.30908	493.42023	1114.2679	712.44684	501.4841	976.64941	677.17603	470.55429	829.30341	701.0329	449.67529	820.60132	632.03741	479.80078	735.92151	637.27478	104.5658	994.5097	583.18939	343.49026	1015.8287	556.85742	202.24352	1025.4639	763.39203	286.3421	1032.0835	755.70758	76.621094	604.83069	705.927	139.64024	651.17279	585.21588	140.90126	531.77356	616.60522	89.282379	478.58755	737.87183				97.542847	310.37079	942.80396	123.29552	369.96097	768.83411	133.46968	242.53943	952.94543	120.80049	199.9034	1063.8145				163.40277	237.06114	1116.8578	155.85004	99.70961	1041.4698	369.70581	609.49786	491.77304	303.22607	723.08228	442.96338	296.25696	645.08893	421.56583	355.19095	509.76907	458.04919				339.34024	227.57585	456.51245	302.11493	439.71091	402.86703	290.04593	232.0387	412.16821	309.0564	90.07132	456.72037				267.28571	53.903507	513.70709	281.84924	47.920876	353.60211	74.17144	1017.9002	672.92053	384.94403	1043.339	685.34821
136	1.35	186.55507	1653.9279	615.92029	303.13846	1653.339	614.64606				303.36111	1660.4924	469.35867	239.79434	1517.726	677.81445	236.95815	1283.7114	751.41254	241.04704	1437.4099	554.09253	236.08975	1244.7686	515.6189	321.7312	1404.7106	737.92761	79.187294	1476.412	605.12677	-23.903053	1200.9185	574.1344	-35.952145	1123.5923	552.56805	-12.873946	1034.1165	465.72009	75.784004	979.78949	343.6655	41.633018	928.1156	374.43216	67.265907	924.04266	269.8287	399.28967	1459.3351	613.74176	483.46198	1195.9648	672.91541	494.68671	1114.8757	695.66315	502.84195	977.51337	659.48389	472.08218	829.99109	682.31433	451.19644	821.69916	613.37268	481.49606	737.10046	617.82654	105.64182	995.19922	569.0285	344.41428	1017.5947	542.7514	202.68149	1026.3506	749.35608	286.77228	1033.5892	741.68268	77.687302	603.01807	682.79083	139.68968	652.34045	563.01294	140.931	532.03284	590.99677	90.059273	477.84863	710.91571				97.832718	315.55173	918.80859	123.6425	370.21185	743.39124	133.42862	247.94928	930.6416	120.81371	208.76508	1042.7412				164.07451	248.14374	1094.0083	154.68277	107.08281	1024.9487	370.10684	610.05011	480.73123	303.75967	723.12433	431.25372	296.3638	644.9353	410.56284	355.23141	509.8855	448.31223				339.44852	227.7386	452.75897	302.0235	438.82874	394.53815	289.96631	231.26402	408.41287	309.04236	90.257675	456.04352				267.43753	54.176575	513.5423	281.74411	47.906319	353.46414	74.735146	1018.1346	658.75098	385.41415	1045.3918	671.46033
137	1.36	187.9371	1655.5374	601.33069	304.52063	1654.6323	600.00952				304.70566	1661.6053	454.71304	240.98262	1519.2135	663.29852	237.76901	1285.2339	736.75708	241.81461	1438.8285	539.63495	236.51768	1246.1729	501.27518	322.94751	1406.0995	723.24695	80.088791	1478.1464	590.96368	-22.996172	1201.9531	563.13629	-34.997189	1124.224	542.96423	-12.558196	1032.5134	458.53323	75.732147	974.14789	338.15271	41.067661	923.72485	370.20047	67.230446	916.26013	265.91336	400.14844	1460.5563	598.84717	484.5408	1196.8621	656.58722	495.97644	1115.708	678.92389	504.22205	978.64075	641.7193	473.62946	830.93433	663.38153	452.7439	823.11859	594.49969	483.25305	738.62744	598.04163	106.66731	996.20312	555.07483	345.3096	1019.4346	528.81262	203.11937	1027.4301	735.51025	287.19647	1035.2263	727.82837	78.858566	601.8197	659.66895	139.63661	654.14148	540.8454	140.99689	533.04517	565.28015	90.850731	477.66769	683.60529				98.268211	320.58572	893.71063	124.10388	370.91687	717.16071	133.65001	253.22905	907.01349	121.10854	217.13142	1020.1				165.06499	258.08719	1069.9945	153.48792	114.52566	1005.7319	370.58606	610.46661	470.4165	304.15262	722.92682	420.14587	296.49634	644.4671	400.23184	355.38501	509.84579	439.40179				339.58145	227.80016	449.53311	302.13013	437.87631	386.93619	290.05695	230.50113	405.0668	309.06775	90.422783	455.55878				267.5657	54.365768	513.43036	281.7215	48.058231	353.42572	75.303017	1018.6965	644.81927	385.8793	1047.4847	657.73633
138	1.37	189.20018	1657.2961	586.84363	305.78473	1656.0858	585.47589				305.92572	1662.8342	440.16971	242.09999	1520.8564	648.91351	238.59549	1286.9259	722.3183	242.47794	1440.3901	525.33173	236.8596	1247.7131	487.09998	324.12897	1407.6733	708.70111	80.892929	1480.0164	577.00537	-22.114777	1203.1332	552.35083	-34.038513	1125.0144	533.60583	-12.380677	1030.9927	451.76981	75.362389	968.3172	333.2142	40.19635	919.28333	366.6445	66.749466	908.16052	262.77805	400.92169	1461.9658	584.06201	485.61121	1197.9736	640.3429	497.28751	1116.7544	662.24725	505.61905	980.02216	623.90149	475.18622	832.12762	644.25574	454.30774	824.85608	575.43781	485.061	740.50073	577.94641	107.63884	997.51056	541.31793	346.17508	1021.3262	515.03882	203.55334	1028.6926	721.84399	287.61212	1036.979	714.13806	80.122154	601.29492	636.62878	139.52757	656.58124	518.80365	141.12378	534.83582	539.57843	91.656837	478.09763	656.08685				98.838921	325.40744	867.67822	124.6607	372.08865	690.26471	134.08835	258.26437	882.18884	121.64121	224.78983	996.02875				166.31427	266.65103	1045.0198	152.30577	121.74053	983.8457	371.11981	610.75421	460.80814	304.46048	722.50629	409.57803	296.70621	643.70795	390.52432	355.63892	509.66077	431.28146				339.7319	227.75771	446.75192	302.41226	436.85687	380.02768	290.28064	229.73701	402.08505	309.12006	90.549423	455.21451				267.67096	54.492836	513.35455	281.75323	48.279823	353.44846	75.870384	1019.5848	631.10638	386.33957	1049.5979	644.16956
